<svg width="32" height="32" viewBox="0 0 32 32" fill="none" xmlns="http://www.w3.org/2000/svg">
<rect width="32" height="32" rx="16" fill="white"/>
<path d="M7.33472 12.1848C6.8106 12.5582 6.50341 13.3488 7.08247 14.2942C7.66154 15.2395 15.9345 21.6205 16.2378 21.7977C16.5411 21.975 16.8447 22.0045 17.6165 21.3842C18.3888 20.7637 24.8405 15.9171 25.0069 15.7713C25.2719 15.5394 25.3379 14.9737 25.0069 14.7077C25.0069 14.7077 17.1908 20.5569 16.9349 20.7933C16.6791 21.0297 16.281 20.6457 16.3557 20.1435C16.4308 19.6412 16.4861 19.582 17.4788 18.814C18.4716 18.0458 24.1001 13.78 24.3555 13.5914C24.6447 13.3777 24.6516 13.0003 24.178 12.6666C23.5194 12.2025 16.4026 7.14118 16.1646 6.96401C15.9258 6.78668 15.5954 6.62557 15.0991 6.98007C14.6028 7.33458 8.2976 11.4988 7.33472 12.1848Z" fill="#316DC2"/>
<path d="M16.2378 22.4203C16.0387 22.3039 12.4089 19.517 9.77233 17.347V21.8714C9.77029 25.1741 19.0753 26.9387 22.158 22.8787V18.5544C20.2642 19.9853 18.0491 21.6592 17.6165 22.0067C16.8447 22.627 16.5412 22.5975 16.2378 22.4203Z" fill="#316DC2"/>
<path d="M20.1754 17.4594C20.1754 17.4594 21.5589 18.1549 21.6573 20.954L20.987 20.7692L20.4508 21.9084C20.2239 18.8433 18.9884 18.3989 18.9884 18.3989L20.1754 17.4594Z" fill="#98B8E6"/>
</svg>
